<svg width="24" height="24" viewBox="0 0 24 24" fill="none" xmlns="http://www.w3.org/2000/svg">
<path d="M12.4996 20.6745C11.9243 21.4631 11.0283 21.9478 10.0595 21.996C9.09069 22.0446 8.15239 21.6503 7.50325 20.9223L1.68608 14.4033C0.761547 13.3679 0.843673 11.7717 1.86902 10.8381C2.89534 9.90449 4.47492 9.98792 5.39945 11.0238L9.51509 15.6364C9.57607 15.7049 9.66458 15.7417 9.75556 15.7372C9.84703 15.7327 9.93063 15.6865 9.98522 15.613L18.4447 4.0266C19.2635 2.90426 20.8283 2.66539 21.9402 3.49274C23.0511 4.3201 23.2872 5.90031 22.4679 7.02216L12.4996 20.6745Z" fill="#5D9BF9"/>
</svg>
