<svg width="30" height="19" viewBox="0 0 30 19" fill="none" xmlns="http://www.w3.org/2000/svg">
<path d="M24.1188 16.2363H6.02908C5.7527 16.2363 5.49451 16.0997 5.3389 15.8714C2.95215 12.3714 2.76906 5.63857 2.7552 4.63912C2.75434 4.59995 2.75391 4.56034 2.75391 4.52095C2.75391 4.06018 3.12702 3.68641 3.5878 3.68555H3.58953C4.04943 3.68555 4.4232 4.05758 4.42493 4.5177C4.42493 4.52333 4.42515 4.57268 4.4271 4.66011C4.50068 7.03712 6.45739 8.94794 8.85192 8.94794C11.293 8.94794 13.2789 6.96202 13.2789 4.52095C13.2789 4.05953 13.6531 3.68555 14.1143 3.68555H16.0334C16.4948 3.68555 16.8688 4.05953 16.8688 4.52095C16.8688 6.96202 18.8549 8.94794 21.296 8.94794C23.6927 8.94794 25.6507 7.03366 25.721 4.65362C25.7225 4.57008 25.723 4.52333 25.723 4.51792C25.7247 4.05758 26.0983 3.68555 26.5584 3.68555H26.5599C27.0207 3.68641 27.3938 4.06018 27.3938 4.52095C27.3938 4.56056 27.3934 4.59995 27.3927 4.63934C27.3786 5.63857 27.1955 12.3716 24.809 15.8716C24.6534 16.0997 24.395 16.2363 24.1188 16.2363Z" fill="#FFDB80"/>
<path d="M26.5599 3.68555C26.5595 3.68555 26.5591 3.68555 26.5584 3.68555C26.0985 3.68555 25.7248 4.05758 25.723 4.5177C25.723 4.52333 25.7228 4.57008 25.7211 4.65362C25.6507 7.03344 23.6927 8.94794 21.296 8.94794C18.855 8.94794 16.869 6.96202 16.869 4.52095C16.869 4.05953 16.4948 3.68555 16.0336 3.68555H15.0742V16.2361H24.1189C24.3953 16.2361 24.6534 16.0995 24.8091 15.8714C27.1958 12.3714 27.3789 5.63836 27.3928 4.63912C27.3936 4.59995 27.3941 4.56034 27.3941 4.52095C27.3938 4.06018 27.0207 3.68641 26.5599 3.68555Z" fill="#FFCD5A"/>
<path d="M15.0743 0.833984C13.5859 0.833984 12.375 2.04489 12.375 3.53325C12.375 5.02161 13.5859 6.2323 15.0743 6.2323C16.5626 6.2323 17.7735 5.02161 17.7735 3.53325C17.7735 2.04489 16.5626 0.833984 15.0743 0.833984Z" fill="#FFCD5A"/>
<path d="M15.0742 0.833984V6.23251C16.5626 6.2323 17.7733 5.02161 17.7733 3.53325C17.7733 2.04489 16.5624 0.834201 15.0742 0.833984Z" fill="#FFBB68"/>
<path d="M3.58989 2.91797C2.10153 2.91797 0.890625 4.12887 0.890625 5.61723C0.890625 7.1056 2.10153 8.3165 3.58989 8.3165C5.07825 8.3165 6.28894 7.1056 6.28894 5.61723C6.28894 4.12887 5.07825 2.91797 3.58989 2.91797Z" fill="#FFCD5A"/>
<path d="M26.5584 2.91797C25.0701 2.91797 23.8594 4.12887 23.8594 5.61723C23.8594 7.10538 25.0701 8.31628 26.5584 8.31628C28.0468 8.31628 29.2577 7.10538 29.2577 5.61723C29.2577 4.12887 28.0468 2.91797 26.5584 2.91797Z" fill="#FFBB68"/>
<path d="M24.1205 18.9751H6.03072C5.5693 18.9751 5.19531 18.6011 5.19531 18.1397V15.6484H24.9559V18.1397C24.9559 18.6011 24.5819 18.9751 24.1205 18.9751Z" fill="#FFCD5A"/>
<path d="M15.0742 18.9751H24.1189C24.5803 18.9751 24.9543 18.6011 24.9543 18.1397V15.6484H15.0742V18.9751Z" fill="#FFBB68"/>
</svg>
