<svg width="19" height="19" viewBox="0 0 19 19" fill="none" xmlns="http://www.w3.org/2000/svg">
<path d="M17.6865 12.7661C17.8647 12.3411 17.3555 11.9799 16.9278 12.1685C16.076 12.5428 15.1528 12.7356 14.2192 12.7342C10.5636 12.7342 7.60048 9.83074 7.60048 6.24883C7.60048 4.99515 7.9635 3.82479 8.59177 2.83303C8.83923 2.44241 8.54137 1.90013 8.08772 2.01587C4.58487 2.90935 2 6.02933 2 9.74094C2 14.1495 5.64693 17.723 10.1462 17.723C13.5523 17.723 16.4701 15.6746 17.6865 12.7661Z" stroke="#508FEF" stroke-width="2.5"/>
<path d="M13.0157 2.08955C12.5529 1.78091 12.0007 2.33249 12.3094 2.79595L12.8599 3.62154C13.0831 3.9562 13.2021 4.34944 13.2021 4.75168C13.2021 5.15392 13.0831 5.54715 12.8599 5.88182L12.3094 6.7074C12.0007 7.17035 12.5529 7.72244 13.0163 7.41329L13.8413 6.86325C14.176 6.6401 14.5692 6.52103 14.9714 6.52103C15.3737 6.52103 15.7668 6.6401 16.1016 6.86325L16.9271 7.41329C17.3901 7.72244 17.9421 7.17035 17.633 6.70689L17.0829 5.88182C16.8597 5.54715 16.7407 5.15392 16.7407 4.75168C16.7407 4.34944 16.8597 3.9562 17.0829 3.62154L17.6334 2.79595C17.9421 2.333 17.3901 1.78091 16.9266 2.09006L16.1016 2.64011C15.7668 2.86325 15.3737 2.98232 14.9714 2.98232C14.5692 2.98232 14.176 2.86325 13.8413 2.64011L13.0157 2.08955Z" stroke="#508FEF" stroke-width="2"/>
</svg>
