<svg width="26" height="8" viewBox="0 0 26 8" fill="none" xmlns="http://www.w3.org/2000/svg">
<path fill-rule="evenodd" clip-rule="evenodd" d="M20.1653 1.7903C18.9449 3.01068 18.9449 4.98933 20.1653 6.20971C21.3857 7.4301 23.3643 7.4301 24.5847 6.20971C25.8051 4.98933 25.8051 3.01068 24.5847 1.7903C23.3643 0.569917 21.3857 0.569916 20.1653 1.7903ZM10.7903 6.20971C9.56992 4.98933 9.56992 3.01068 10.7903 1.7903C12.0107 0.569916 13.9893 0.569916 15.2097 1.7903C16.4301 3.01068 16.4301 4.98933 15.2097 6.20971C13.9893 7.43009 12.0107 7.43009 10.7903 6.20971ZM1.41535 6.20971C0.194964 4.98933 0.194964 3.01068 1.41535 1.7903C2.63573 0.569915 4.61437 0.569915 5.83476 1.7903C7.05514 3.01068 7.05514 4.98933 5.83476 6.20971C4.61437 7.43009 2.63573 7.43009 1.41535 6.20971Z" fill="#5D9BF9"/>
</svg>
