<svg width="14" height="14" viewBox="0 0 14 14" fill="none" xmlns="http://www.w3.org/2000/svg">
<path fill-rule="evenodd" clip-rule="evenodd" d="M2.2 1C1.53726 1 1 1.54337 1 2.21365V8.8887C1 9.559 1.53726 10.1023 2.2 10.1023H3.4V12.392C3.4 12.9156 4.01168 13.1934 4.39862 12.8456L7.45 10.1023H11.8C12.4628 10.1023 13 9.559 13 8.8887V2.21365C13 1.54337 12.4628 1 11.8 1H2.2ZM4.9 10.1023C4.9 9.26451 4.22843 8.58529 3.4 8.58529H2.5V2.51706H11.5V8.58529H7.45C7.08262 8.58529 6.72802 8.72164 6.45346 8.9685L4.9 10.365V10.1023Z" fill="#5D9BF9" stroke="white" stroke-width="0.2"/>
</svg>
