<svg width="32" height="32" viewBox="0 0 32 32" fill="none" xmlns="http://www.w3.org/2000/svg">
<path fill-rule="evenodd" clip-rule="evenodd" d="M21.0271 21.2211L28.7133 13.5349L29.2256 14.0474C29.5087 14.3303 29.9675 14.3303 30.2504 14.0474L31.7877 12.5101C32.0708 12.2271 32.0708 11.7683 31.7877 11.4853L20.5146 0.212249C20.2317 -0.0707493 19.7729 -0.0707493 19.4898 0.212247L17.9527 1.74948C17.6696 2.03249 17.6696 2.49131 17.9527 2.7743L18.465 3.28671L10.7788 10.9729L1.91523 13.3902C0.841623 13.683 0.484858 15.0264 1.27175 15.8132L7.44817 21.9898L0.530613 28.9072C-0.176871 29.6148 -0.176871 30.7618 0.530613 31.4693C1.23811 32.1769 2.38518 32.1769 3.09267 31.4693L10.0102 24.5517L16.1867 30.7282C16.9735 31.5151 18.3169 31.1583 18.6098 30.0847L21.0271 21.2211ZM26.1512 10.9729L21.0271 5.84877L13.3409 13.5349C12.895 13.9808 12.3405 14.3026 11.7322 14.4686L6.48273 15.9002L16.0997 25.5173L17.5315 20.2677C17.6973 19.6594 18.0192 19.1049 18.465 18.6591L26.1512 10.9729Z" fill="#5D9BF9"/>
</svg>
