<svg width="22" height="22" viewBox="0 0 22 22" fill="none" xmlns="http://www.w3.org/2000/svg">
<path d="M19.8976 12.6945H12.6944V19.8977C12.6944 20.8333 11.9354 21.5924 10.9997 21.5924C10.064 21.5924 9.30497 20.8333 9.30497 19.8977V12.6945H2.10183C1.16618 12.6945 0.407104 11.9355 0.407104 10.9998C0.407104 10.0642 1.16618 9.30509 2.10183 9.30509H9.30497V2.10195C9.30497 1.1663 10.064 0.407227 10.9997 0.407227C11.9354 0.407227 12.6944 1.1663 12.6944 2.10195V9.30509H19.8976C20.8332 9.30509 21.5923 10.0642 21.5923 10.9998C21.5923 11.9355 20.8332 12.6945 19.8976 12.6945Z" fill="#5D9BF9"/>
</svg>
