<svg width="24" height="24" viewBox="0 0 24 24" fill="none" xmlns="http://www.w3.org/2000/svg">
<path d="M21.486 12.77H19.7257C19.2803 12.77 18.9208 13.1264 18.9054 13.5657C18.5398 16.9634 15.6644 19.6084 12.1654 19.6084C8.42059 19.6084 5.38845 16.5794 5.38845 12.8407C5.38845 9.13587 8.44207 6.12522 12.1378 6.07301V7.17281C12.1378 7.67357 12.4941 7.89781 12.9304 7.67357L18.5799 4.78279C19.0161 4.55851 19.0161 4.19601 18.5799 3.97177L12.9304 1.08705C12.4941 0.862807 12.1378 1.08705 12.1378 1.58472V2.69371C6.56812 2.74596 2 7.27416 2 12.8469C2 18.4533 6.54969 23 12.1654 23C17.5354 23 21.9346 18.8435 22.3032 13.5719C22.3062 13.1295 21.9345 12.77 21.486 12.77Z" fill="#5D9BF9"/>
</svg>
