<svg width="16" height="16" viewBox="0 0 16 16" fill="none" xmlns="http://www.w3.org/2000/svg">
<path fill-rule="evenodd" clip-rule="evenodd" d="M11.6314 10.3681L15.1457 13.915C15.6181 14.3918 15.6164 15.1608 15.1417 15.6354C14.664 16.1132 13.8888 16.1114 13.4133 15.6315L9.92142 12.1073L9.80565 12.1897C8.69766 12.8822 7.54263 13.2301 6.34504 13.2301C4.59406 13.2301 3.09308 12.6018 1.85662 11.3515C0.620852 10.1018 0 8.59503 0 6.84504C0 5.09466 0.621169 3.59408 1.85763 2.35763C3.09408 1.12117 4.59466 0.5 6.34504 0.5C8.09542 0.5 9.59599 1.12117 10.8325 2.35763C12.0689 3.59408 12.6901 5.09466 12.6901 6.84504C12.6901 8.06692 12.3568 9.2076 11.6921 10.2618L11.6314 10.3681ZM9.16873 4.01143C8.39293 3.23221 7.45677 2.84504 6.34754 2.84504C5.2383 2.84504 4.30215 3.23221 3.52634 4.01143C2.75054 4.79065 2.36507 5.73092 2.36507 6.84504C2.36507 7.95916 2.75054 8.89943 3.52634 9.67865C4.30215 10.4579 5.2383 10.845 6.34754 10.845C7.45677 10.845 8.39293 10.4579 9.16873 9.67865C9.96847 8.87539 10.3651 7.93486 10.3651 6.84504C10.3651 5.75522 9.96847 4.81469 9.16873 4.01143Z" fill="#CFCFCF"/>
</svg>
