<svg width="40" height="40" viewBox="0 0 40 40" fill="none" xmlns="http://www.w3.org/2000/svg">
<path d="M37.5585 27.9199H6.99914C3.95507 27.9199 1.4873 30.3876 1.4873 33.4317C1.4873 36.4758 3.95499 38.9436 6.99914 38.9436H37.5585V27.9199Z" fill="#F4E9D7"/>
<path d="M8.21714 33.4316C8.21714 31.2176 8.98559 29.2378 10.1935 27.9199H6.99914C3.95507 27.9199 1.4873 30.3876 1.4873 33.4316C1.4873 36.4757 3.95507 38.9434 6.99914 38.9434H10.1935C8.98559 37.6255 8.21714 35.6457 8.21714 33.4316Z" fill="#F2E5D0"/>
<path d="M8.93102 39.9684H6.65621C2.98012 39.9684 0 36.9883 0 33.3122C0 29.6361 2.98012 26.656 6.65621 26.656H39.3386C39.67 26.656 39.9387 26.9247 39.9387 27.2561V29.12C39.9387 29.4514 39.67 29.72 39.3386 29.72H6.71999C4.70999 29.72 3.03028 31.3649 3.06471 33.3746C3.09817 35.3266 4.69645 36.9042 6.65629 36.9042H8.93102H39.3386C39.67 36.9042 39.9387 37.1729 39.9387 37.5043V39.3682C39.9387 39.6996 39.67 39.9683 39.3386 39.9683H8.93102V39.9684Z" fill="#91D4DD"/>
<path d="M16.0761 39.7749L13.9468 38.8937L11.8175 39.7749C11.5949 39.867 11.3501 39.7035 11.3501 39.4626V33.3121H16.5434V39.4626C16.5435 39.7035 16.2987 39.8671 16.0761 39.7749Z" fill="#5D9BF9"/>
<path d="M17.5966 33.917H10.0113C9.67727 33.917 9.40649 33.6463 9.40649 33.3122C9.40649 32.9781 9.67727 32.7074 10.0113 32.7074H17.5966C17.9306 32.7074 18.2014 32.9781 18.2014 33.3122C18.2014 33.6463 17.9306 33.917 17.5966 33.917Z" fill="#F2E5D0"/>
<path d="M2.39551 14.2889H32.1563C35.2393 14.2889 37.7385 16.7881 37.7385 19.8711C37.7385 22.9541 35.2393 25.4533 32.1563 25.4533H2.39551V14.2889Z" fill="#F4E9D7"/>
<path d="M2.39551 14.2889H9.18759V25.4533H2.39551V14.2889Z" fill="#F2E5D0"/>
<path d="M31.0228 26.6558H33.2976C36.9737 26.6558 39.9539 23.6757 39.9539 19.9996C39.9539 16.3235 36.9737 13.3434 33.2976 13.3434H0.615225C0.283814 13.3434 0.0151367 13.6121 0.0151367 13.9435V15.8074C0.0151367 16.1388 0.283814 16.4075 0.615225 16.4075H33.2339C35.2439 16.4075 36.9236 18.0524 36.8891 20.062C36.8557 22.0141 35.2574 23.5916 33.2976 23.5916H31.0228H0.615225C0.283814 23.5916 0.0151367 23.8603 0.0151367 24.1917V26.0556C0.0151367 26.387 0.283814 26.6557 0.615225 26.6557H31.0228V26.6558Z" fill="#F47C7C"/>
<path d="M0.615225 16.4075H9.07452C8.74311 16.4075 8.47443 16.1388 8.47443 15.8074V13.9435C8.47443 13.6121 8.74311 13.3434 9.07452 13.3434H0.615225C0.283814 13.3434 0.0151367 13.6121 0.0151367 13.9435V15.8074C0.0151367 16.1388 0.283814 16.4075 0.615225 16.4075Z" fill="#EE6161"/>
<path d="M8.47443 26.0557V24.1918C8.47443 23.8604 8.74311 23.5917 9.07452 23.5917H0.615225C0.283814 23.5917 0.0151367 23.8604 0.0151367 24.1918V26.0557C0.0151367 26.3871 0.283814 26.6558 0.615225 26.6558H9.07452C8.74311 26.6558 8.47443 26.3871 8.47443 26.0557Z" fill="#EE6161"/>
<path d="M37.5584 0.997345H6.4006C3.34742 0.997345 0.872314 3.47245 0.872314 6.52563C0.872314 9.57881 3.34742 12.0539 6.4006 12.0539H37.5584V0.997345Z" fill="#F4E9D7"/>
<path d="M7.13253 6.83672C7.13253 4.43669 8.30368 2.31049 10.1053 0.997345H6.4006C3.34742 0.997345 0.872314 3.47245 0.872314 6.52563C0.872314 9.57881 3.34742 12.0539 6.4006 12.0539H9.36122C7.98783 10.7394 7.13253 8.888 7.13253 6.83672Z" fill="#F2E5D0"/>
<path d="M23.8152 26.4884L26.0073 25.5811L28.1993 26.4884C28.392 26.5681 28.604 26.4265 28.604 26.2179V19.9996H23.4106V26.2179C23.4106 26.4264 23.6225 26.5681 23.8152 26.4884Z" fill="#FDB441"/>
<path d="M29.943 20.6042H22.3577C22.0236 20.6042 21.7529 20.3335 21.7529 19.9994C21.7529 19.6653 22.0236 19.3946 22.3577 19.3946H29.943C30.2771 19.3946 30.5478 19.6653 30.5478 19.9994C30.5478 20.3335 30.2771 20.6042 29.943 20.6042Z" fill="#F2E5D0"/>
<path d="M40 10.8794V12.7437C40 13.0751 39.7307 13.3436 39.3993 13.3436H8.99165H6.71693C4.87924 13.3436 3.21493 12.5985 2.01024 11.3938C0.80635 10.1891 0.0612793 8.52561 0.0612793 6.68713C0.0612793 3.01096 3.04076 0.0314789 6.71693 0.0314789H39.3993C39.7307 0.0314789 40 0.299995 40 0.631406V2.49489C40 2.8263 39.7307 3.09562 39.3993 3.09562H6.78063C4.77119 3.09562 3.09156 4.73978 3.12542 6.75002C3.15929 8.7014 4.75749 10.2794 6.71693 10.2794H8.99165H39.3993C39.7307 10.2794 40 10.5479 40 10.8794Z" fill="#FFA71C"/>
<path d="M8.00435 10.2793H6.71693C4.75748 10.2793 3.15929 8.70126 3.12542 6.74988C3.09156 4.73964 4.77119 3.09549 6.78063 3.09549H8.17578C9.03132 1.68566 10.356 0.592403 11.9331 0.0313416H6.71693C3.04076 0.0313416 0.0612793 3.01082 0.0612793 6.68699C0.0612793 8.52548 0.80635 10.189 2.01024 11.3937C3.21493 12.5984 4.87924 13.3434 6.71693 13.3434H8.99165H11.2182C9.85259 12.6842 8.72612 11.6077 8.00435 10.2793Z" fill="#FEA613"/>
<path d="M16.2783 13.2086L14.0077 12.2688L11.7372 13.2086C11.5819 13.2728 11.4111 13.1586 11.4111 12.9906V6.68735H16.6044V12.9906C16.6044 13.1587 16.4336 13.2729 16.2783 13.2086Z" fill="#91D4DD"/>
<path d="M17.6574 7.29203H10.0721C9.73806 7.29203 9.46729 7.02133 9.46729 6.68726C9.46729 6.35318 9.73806 6.08249 10.0721 6.08249H17.6574C17.9914 6.08249 18.2622 6.35318 18.2622 6.68726C18.2622 7.02133 17.9915 7.29203 17.6574 7.29203Z" fill="#F2E5D0"/>
<path d="M8.90271 36.9043H6.65621C4.69637 36.9043 3.09809 35.3266 3.06463 33.3747C3.0302 31.365 4.70991 29.7201 6.71991 29.7201H9.00851C9.66335 28.3081 10.6805 27.2141 11.892 26.656H6.65621C2.98012 26.656 0 29.6361 0 33.3122C0 36.9883 2.98012 39.9684 6.65621 39.9684H8.93102H11.4383C10.3624 39.3268 9.47256 38.2471 8.90271 36.9043Z" fill="#91D4DD"/>
</svg>
