<svg width="16" height="16" viewBox="0 0 16 16" fill="none" xmlns="http://www.w3.org/2000/svg">
<path d="M13.2 6.4H12.1333V4.26667C12.1333 3.13508 11.6838 2.04983 10.8837 1.24968C10.0835 0.449523 8.99826 0 7.86667 0C6.73508 0 5.64983 0.449523 4.84968 1.24968C4.04952 2.04983 3.6 3.13508 3.6 4.26667V6.4H2.53333C2.39188 6.4 2.25623 6.45619 2.15621 6.55621C2.05619 6.65623 2 6.79188 2 6.93333V15.4667C2 15.6081 2.05619 15.7438 2.15621 15.8438C2.25623 15.9438 2.39188 16 2.53333 16H13.2C13.3414 16 13.4771 15.9438 13.5771 15.8438C13.6771 15.7438 13.7333 15.6081 13.7333 15.4667V6.93333C13.7333 6.79188 13.6771 6.65623 13.5771 6.55621C13.4771 6.45619 13.3414 6.4 13.2 6.4ZM7.86667 12.8C7.55022 12.8 7.24087 12.7062 6.97775 12.5304C6.71464 12.3545 6.50956 12.1047 6.38846 11.8123C6.26736 11.5199 6.23567 11.1982 6.29741 10.8879C6.35915 10.5775 6.51153 10.2924 6.7353 10.0686C6.95906 9.84487 7.24415 9.69248 7.55452 9.63074C7.86489 9.56901 8.1866 9.60069 8.47896 9.72179C8.77132 9.84289 9.02121 10.048 9.19702 10.3111C9.37283 10.5742 9.46667 10.8836 9.46667 11.2C9.46667 11.6243 9.2981 12.0313 8.99804 12.3314C8.69798 12.6314 8.29101 12.8 7.86667 12.8V12.8ZM11.0667 6.4H4.66667V4.26667C4.66667 3.41797 5.00381 2.60404 5.60393 2.00393C6.20404 1.40381 7.01797 1.06667 7.86667 1.06667C8.71536 1.06667 9.52929 1.40381 10.1294 2.00393C10.7295 2.60404 11.0667 3.41797 11.0667 4.26667V6.4Z" fill="#5D9BF9"/>
</svg>
