<svg width="54" height="54" viewBox="0 0 54 54" fill="none" xmlns="http://www.w3.org/2000/svg">
<path d="M45.5628 24.9059L51.1906 21.4567C51.14 21.3317 51.0808 21.2105 51.0134 21.0939C50.792 20.7008 50.4935 20.3564 50.1359 20.0814L45.5628 16.6135L33.6828 7.59386L29.0421 4.07542C28.4538 3.63188 27.737 3.39197 27.0003 3.39197C26.2635 3.39197 25.5467 3.63188 24.9584 4.07542L20.3178 7.59386L8.43775 16.6135L3.86463 20.0814C3.50701 20.3564 3.20855 20.7008 2.98713 21.0939C2.84252 21.3324 2.73445 21.5912 2.6665 21.8617L26.5733 36.3657L45.5628 24.9059Z" fill="#91BCFF"/>
<path d="M45.5625 16.6134V9.28125C45.5625 8.8337 45.3847 8.40448 45.0682 8.08801C44.7518 7.77154 44.3226 7.59375 43.875 7.59375H10.125C9.67745 7.59375 9.24823 7.77154 8.93176 8.08801C8.61529 8.40448 8.4375 8.8337 8.4375 9.28125V25.3623L26.5731 36.3656L45.5625 24.9058V16.6134Z" fill="#E8EDFF"/>
<path d="M26.5732 36.3641L50.2202 50.7096L26.5732 36.3641Z" fill="#5D9BF9"/>
<path d="M45.5627 24.906L51.1906 21.4568L45.5627 24.906Z" fill="#5D9BF9"/>
<path d="M45.5627 24.906L26.5732 36.3658L50.2202 50.7096C50.6115 50.3954 50.9269 49.9971 51.1431 49.5443C51.3593 49.0915 51.4707 48.5958 51.4689 48.094V22.773C51.4712 22.3194 51.3762 21.8706 51.1905 21.4568L45.5627 24.906Z" fill="#5D9BF9"/>
<path d="M8.4376 25.3631L2.66635 21.8616C2.57438 22.1565 2.52883 22.4639 2.53135 22.7728V48.0938C2.53135 48.9889 2.88693 49.8473 3.51986 50.4802C4.1528 51.1132 5.01124 51.4688 5.90635 51.4688H48.0938C48.8688 51.4672 49.6195 51.1991 50.2201 50.7094L8.4376 25.3623V25.3631Z" fill="#5D9BF9"/>
<path d="M51.1903 21.4568L45.5625 24.906V41.344C45.5629 42.3155 45.3529 43.2755 44.9469 44.1582C44.541 45.0408 43.9488 45.8251 43.2109 46.4571L50.22 50.7096C50.6113 50.3954 50.9267 49.9971 51.1429 49.5443C51.3591 49.0915 51.4705 48.5958 51.4687 48.094V22.773C51.471 22.3194 51.376 21.8706 51.1903 21.4568Z" fill="#5D9BF9"/>
<path d="M38.8125 48.0939H2.53125C2.53125 48.989 2.88683 49.8475 3.51976 50.4804C4.1527 51.1133 5.01114 51.4689 5.90625 51.4689H48.0938C48.8687 51.4674 49.6194 51.1992 50.22 50.7095L43.211 46.457C41.9892 47.5136 40.4277 48.0947 38.8125 48.0939Z" fill="#5D9BF9"/>
</svg>
